<mxfile host="app.diagrams.net" modified="2023-04-05T06:27:27.497Z" agent="Mozilla/5.0 (Windows NT 10.0; Win64; x64) AppleWebKit/537.36 (KHTML, like Gecko) Chrome/111.0.0.0 Safari/537.36" version="21.1.4" etag="y5obUlmg_GInhrHz0pwX" type="github">
  <diagram name="Page-1" id="iC3yybhA6i9bxrO21jiZ">
    <mxGraphModel>
      <root>
        <mxCell id="0" />
        <mxCell id="1" parent="0" />
      </root>
    </mxGraphModel>
  </diagram>
</mxfile>
